<mxfile host="app.diagrams.net" modified="2024-06-08T17:05:24.261Z" agent="Mozilla/5.0 (Macintosh; Intel Mac OS X 10_15_7) AppleWebKit/537.36 (KHTML, like Gecko) Chrome/125.0.0.0 Safari/537.36" etag="8ed0_ErocPUjioRD55M8" version="24.5.2" type="device">
  <diagram name="Page-1" id="7jkAbXpfbJ8A_Zup8ZCl">
    <mxGraphModel dx="1224" dy="809" grid="1" gridSize="10" guides="1" tooltips="1" connect="1" arrows="1" fold="1" page="1" pageScale="1" pageWidth="850" pageHeight="1100" background="none" math="0" shadow="0">
      <root>
        <mxCell id="0" />
        <mxCell id="1" parent="0" />
        <mxCell id="UwGJi3cT6jm0faRSvHgD-23" value="" style="whiteSpace=wrap;html=1;fillColor=#ffe6cc;strokeColor=#d79b00;" vertex="1" parent="1">
          <mxGeometry x="320" y="360" width="317.5" height="380" as="geometry" />
        </mxCell>
        <mxCell id="UwGJi3cT6jm0faRSvHgD-10" value="" style="edgeStyle=orthogonalEdgeStyle;rounded=0;orthogonalLoop=1;jettySize=auto;html=1;" edge="1" parent="1" source="UwGJi3cT6jm0faRSvHgD-1" target="UwGJi3cT6jm0faRSvHgD-2">
          <mxGeometry relative="1" as="geometry" />
        </mxCell>
        <mxCell id="UwGJi3cT6jm0faRSvHgD-1" value="" style="html=1;verticalLabelPosition=bottom;align=center;labelBackgroundColor=#ffffff;verticalAlign=top;strokeWidth=2;strokeColor=#0080F0;shadow=0;dashed=0;shape=mxgraph.ios7.icons.user;" vertex="1" parent="1">
          <mxGeometry x="440" y="210" width="40" height="40" as="geometry" />
        </mxCell>
        <mxCell id="UwGJi3cT6jm0faRSvHgD-11" value="" style="edgeStyle=orthogonalEdgeStyle;rounded=0;orthogonalLoop=1;jettySize=auto;html=1;" edge="1" parent="1" source="UwGJi3cT6jm0faRSvHgD-2" target="UwGJi3cT6jm0faRSvHgD-3">
          <mxGeometry relative="1" as="geometry" />
        </mxCell>
        <mxCell id="UwGJi3cT6jm0faRSvHgD-2" value="" style="outlineConnect=0;dashed=0;verticalLabelPosition=bottom;verticalAlign=top;align=center;html=1;shape=mxgraph.aws3.route_53;fillColor=#F58536;gradientColor=none;" vertex="1" parent="1">
          <mxGeometry x="432.5" y="290" width="55" height="50" as="geometry" />
        </mxCell>
        <mxCell id="UwGJi3cT6jm0faRSvHgD-12" value="" style="edgeStyle=orthogonalEdgeStyle;rounded=0;orthogonalLoop=1;jettySize=auto;html=1;" edge="1" parent="1" source="UwGJi3cT6jm0faRSvHgD-3" target="UwGJi3cT6jm0faRSvHgD-6">
          <mxGeometry relative="1" as="geometry" />
        </mxCell>
        <mxCell id="UwGJi3cT6jm0faRSvHgD-13" value="" style="edgeStyle=orthogonalEdgeStyle;rounded=0;orthogonalLoop=1;jettySize=auto;html=1;" edge="1" parent="1" source="UwGJi3cT6jm0faRSvHgD-3" target="UwGJi3cT6jm0faRSvHgD-7">
          <mxGeometry relative="1" as="geometry" />
        </mxCell>
        <mxCell id="UwGJi3cT6jm0faRSvHgD-3" value="" style="outlineConnect=0;dashed=0;verticalLabelPosition=bottom;verticalAlign=top;align=center;html=1;shape=mxgraph.aws3.cloudfront;fillColor=#F58536;gradientColor=none;" vertex="1" parent="1">
          <mxGeometry x="440" y="380" width="40" height="50" as="geometry" />
        </mxCell>
        <mxCell id="UwGJi3cT6jm0faRSvHgD-6" value="" style="outlineConnect=0;dashed=0;verticalLabelPosition=bottom;verticalAlign=top;align=center;html=1;shape=mxgraph.aws3.s3;fillColor=#F58536;gradientColor=none;" vertex="1" parent="1">
          <mxGeometry x="550" y="381.88" width="50" height="46.25" as="geometry" />
        </mxCell>
        <mxCell id="UwGJi3cT6jm0faRSvHgD-14" value="" style="edgeStyle=orthogonalEdgeStyle;rounded=0;orthogonalLoop=1;jettySize=auto;html=1;" edge="1" parent="1" source="UwGJi3cT6jm0faRSvHgD-7" target="UwGJi3cT6jm0faRSvHgD-8">
          <mxGeometry relative="1" as="geometry" />
        </mxCell>
        <mxCell id="UwGJi3cT6jm0faRSvHgD-7" value="" style="outlineConnect=0;dashed=0;verticalLabelPosition=bottom;verticalAlign=top;align=center;html=1;shape=mxgraph.aws3.api_gateway;fillColor=#F58536;gradientColor=none;" vertex="1" parent="1">
          <mxGeometry x="440" y="470" width="40" height="50" as="geometry" />
        </mxCell>
        <mxCell id="UwGJi3cT6jm0faRSvHgD-15" value="" style="edgeStyle=orthogonalEdgeStyle;rounded=0;orthogonalLoop=1;jettySize=auto;html=1;" edge="1" parent="1" source="UwGJi3cT6jm0faRSvHgD-8" target="UwGJi3cT6jm0faRSvHgD-9">
          <mxGeometry relative="1" as="geometry" />
        </mxCell>
        <mxCell id="UwGJi3cT6jm0faRSvHgD-8" value="" style="shape=image;verticalLabelPosition=bottom;labelBackgroundColor=default;verticalAlign=top;aspect=fixed;imageAspect=0;image=data:image/png,iVBORw0KGgoAAAANSUhEUgAAAOEAAADhCAMAAAAJbSJIAAAAh1BMVEXYZhP////XYADWWgDWXADXYQDVVwDYZAzmon/acjDy0sL13NHabSXVVgDXYwjZahnqspb349jdfUL67OT88+7uxK/++vfpr5Lxzbztvqfoqov1287jlm346N/mpYTtv6nhj2HdfEHknHbabSLilGnruJ7giVneg07cdzjfhlTUTQDgjFzbci762Mb/AAAIdUlEQVR4nO1dbVvbOgxN8zpg6WBAGZeNbcA29vL/f99ltZSmxLGPDW7kPTpf+iVtfSLZlnWkpCgUCoVCoVAoFAqFQqFQKBQKhUKhUCgUCoVCoVD8S+jCsPRwg9FV90dBqJqlhxyG7t2nVRg2D+XSgw5CdRZI8Al/svLUdTjB1Ydq6VEHoHsXwXD1LiMjxjG8zMiIxHBzc4KBlqUiHyMSw7NfFYZ+s73+c730wGEwQ9Tt6lNjxCYbI4YyLGrD8Fs2RgxmWH4zFP9dhoMRcwlsIhhem9X332XYURR0lYmfhjMs6s/GiJns+hEMu8IY8b88/DSCYVFdGiP2yUb1mohhyLHsbRZGjGFYVB+2X7poU43qNRHFsPtjjHiXgxGjGBbVcT5GjGO4fjRG/JhBUiqOIRvxPIPlNJLh+qsx4oN8I0YyLNqb7fc+yTdiLMP1D2PEL+KNGMuwaE/MF8Uvp9EMm5/GiD+lGzGaYdGaZPmJdCPGM2x+GyP+WCcY1isinmHRm9zpjXAjvoBh82CM+FW2EZlhX07hW0Pac2NE2Yd9Ynh+92aKj7U77dt8NEZ8FG1EpzJz4dGY2ovtZceijejWnjxjL+/MZW8lp/g96prHAXtjRNmKabV5iRFvzWX3ko3Ia/4MPJI93R/Ziml5dPXt1ALIAcv/zI2QLXt3lq2wLNtbaOxVdorpDj3kgPWVuRH5KKY7gA5YmauuczQi5oCsmEo/JtrADrh2G7E0V+Uje49QbhAHrHOTvUdgB3Tn7rvGXHWaI0Ws7oIU05XoXX8GmAOy7J2JYrqHwQHdY69JMc3SiCTZe4yYlWK6D1CyZ8U0RyOyZO/Op7Fi+iZHI2IOyEaUr9NMgTng+sjciLsMYzfQATNSTCfA6i5ykr2fg8fucUBWTIWn+A2aqq9GKTbMAfNRTJ/i7YeL1dkoiwg6ICmmGcjehtA4AiMHBI0oXjFlpxxFMev3kAP2RjEVL3t396tJGM0O6B57891884dwI1KYthfFNOSA3z0z0SimwmVvDrX3N0CS7M/cM7H5Yr75XrTYRmXq2w1wZER2QI9OQ4qpaCM2A8G9MLqHHDAHxbQ83TEcb4CgA/byFVNKAm8mG2ALOWBDiumRWCNyIv+r+RgVHoIO2EpXTGmAl7+mYTQZ0aeYvjE3QqrszeO7b6ZhNDugRzHleyTUiGSnJx/jwsPxchqkmMrsMWW9+2muNdMwGnTAllRHkSl+2vS2U80SRmOrSEmClcSHS3DB6HbPsxQegnUXNSRYLYL9ot92WnhYQQ5Yim0U5lMgHSB4Uo6iGF5FclVM6eQ77IGWwkOS7D2yt1TFlHO6QzBqiWJAByQjegSrg4PSoqNY1BJGg4opNQrLMiLrE6PUtiWMrjHZuzNXXYkyYm1pC7VsgPkqpiz27umEliiGUwDusbNDSJK9yf2eTZ1qEkbznfB0qgtsFLY/J8ESRmMOyClJOYopB5PPs4XTMDpQ9haTk2pnYklLGF1BRhwUUyFG5Jh6eh6YhtGgA7JgJcSI8wdzSxSDSfayFFNXgmIaRoOd6phgdSC4kkyWMBrrVOdGYQmKKWd77Q1a0zA6UPYWYERKWMwkey1hNLaKsGL6e3Ej8khmVBdLGA12qrdSFFPyplnlzBLFYA7IgtXSsrd3RbCE0Zzw8DigEMXUP6loAxyH0TkppsPuNm8OSxTDiUeP7C1CMaUw07m5WcJobBWR0CjMJdrO4kpL4SE7oEf2xgSrpODdzm2L1szVcSoY61TneHBB2ZuP7J68y+b5aoo64OKKKR8dPHl6Ourv3YY+SDFdrMeUjOPJf/a28zEoey/cKMzGceeweTI9Ez2xTvWFG4V7SEzqz61mKDHZGxOsEoEnibuFkpXEiTuCiumSsndrN87zq4ysOH34BbiK1Ms1CvNa4S7v4cjcckJooUbhIdXzstHGgFVe9wBZVrQE2WGNwodXTPn45o78Oey25sxA2ZsFq7LZoTpAIhV7Vhedf+25Q7BReFTvOGBzm9ykfIp1n8BZiZmJzEnu8DUKX1sopk/COebXCORhczl8XkU8iqn1BRMfEhuRT0SebBLNtNlnd4Oy96WF4XFihizbu2chx1yzYR0oe9uMmJghqK9Q3Dy/WIKNws3j8fkIh2BYA8mL3SHQEbVgjcLFuh69P+LPARhaZfsp2lEp39wvhddd0CqelmHtXiIJe6V8sz8FNQqPcRiGK/cSacDZcOfgWfbGO9UPwZBjEfegWGPyZLY5Hwmf4g/BsIJKQKd1YFZ0b6FleYcDMORdzn0o5TXE254dWndxAIY9VE/PqVSvwhnaqZ6eIWeWPGfzEt4GWPYG1d70DMFMJ61GwDgC6y6SM2TJwZPoxFYjg7C6i+QMW6dszyjtSVI7wEbh/auTMeReEU+37kySdAZYozAhNUMoUBlcGXyVY1DdRWKGvCp4HIpdGQ1UMNmbhpCWIfgICJpY8KO6wUbh8Y8nYsiyvWdhp/sQUAqDNQpvkZYhItvv7kPAyytA2fsvkjIEjzpYBmAfWKPwXyRlyLGmp0qbMgBBVdqsgvjrLpIyxGJNTpKGlcHAdRcpGbKC4BkEBWyBT3oc6nB9RkzJsPbkdw0G7Tvw19HHDSRkiMn2Q9V36AhYMfXFQQkZYkPnJSO8tqDC6i7SMeR7XLbOF/7+8idJ5/6An49dWx+fzagfUzGkeeJ9e7MZZkyhFi1RN1e2B6DvcJ2IIXsfhqiyV57oEF6fYXUSwtBTOTqD1vkWguQMPwUQjHx0Xn3q/+l0DMuAf49u5qnxv0jQQ9valFg7TmML7Ur3qyRGOEsS0jRvMdTxt7e8t7yRx4IviYoVOwwv+ovGuRmiL1pSKBQKhUKhUCgUCoVCoVAoFAqFQqFQKBQKhUIhEv8DCA2CF13Z2rQAAAAASUVORK5CYII=;" vertex="1" parent="1">
          <mxGeometry x="435" y="570" width="50" height="50" as="geometry" />
        </mxCell>
        <mxCell id="UwGJi3cT6jm0faRSvHgD-9" value="" style="outlineConnect=0;dashed=0;verticalLabelPosition=bottom;verticalAlign=top;align=center;html=1;shape=mxgraph.aws3.dynamo_db;fillColor=#2E73B8;gradientColor=none;" vertex="1" parent="1">
          <mxGeometry x="440" y="670" width="40" height="50" as="geometry" />
        </mxCell>
        <mxCell id="UwGJi3cT6jm0faRSvHgD-16" value="Client" style="text;html=1;align=center;verticalAlign=middle;resizable=0;points=[];autosize=1;strokeColor=none;fillColor=none;" vertex="1" parent="1">
          <mxGeometry x="485" y="215" width="50" height="30" as="geometry" />
        </mxCell>
        <mxCell id="UwGJi3cT6jm0faRSvHgD-17" value="Route 53" style="text;html=1;align=center;verticalAlign=middle;resizable=0;points=[];autosize=1;strokeColor=none;fillColor=none;" vertex="1" parent="1">
          <mxGeometry x="485" y="300" width="70" height="30" as="geometry" />
        </mxCell>
        <mxCell id="UwGJi3cT6jm0faRSvHgD-18" value="Cloudfront" style="text;html=1;align=center;verticalAlign=middle;resizable=0;points=[];autosize=1;strokeColor=none;fillColor=none;" vertex="1" parent="1">
          <mxGeometry x="355" y="390" width="80" height="30" as="geometry" />
        </mxCell>
        <mxCell id="UwGJi3cT6jm0faRSvHgD-19" value="Amazon S3" style="text;html=1;align=center;verticalAlign=middle;resizable=0;points=[];autosize=1;strokeColor=none;fillColor=none;" vertex="1" parent="1">
          <mxGeometry x="530" y="428.13" width="90" height="30" as="geometry" />
        </mxCell>
        <mxCell id="UwGJi3cT6jm0faRSvHgD-20" value="API Gateway" style="text;html=1;align=center;verticalAlign=middle;resizable=0;points=[];autosize=1;strokeColor=none;fillColor=none;" vertex="1" parent="1">
          <mxGeometry x="345" y="480" width="90" height="30" as="geometry" />
        </mxCell>
        <mxCell id="UwGJi3cT6jm0faRSvHgD-21" value="Lamda" style="text;html=1;align=center;verticalAlign=middle;resizable=0;points=[];autosize=1;strokeColor=none;fillColor=none;" vertex="1" parent="1">
          <mxGeometry x="485" y="580" width="60" height="30" as="geometry" />
        </mxCell>
        <mxCell id="UwGJi3cT6jm0faRSvHgD-22" value="Dynamo DB" style="text;html=1;align=center;verticalAlign=middle;resizable=0;points=[];autosize=1;strokeColor=none;fillColor=none;" vertex="1" parent="1">
          <mxGeometry x="480" y="680" width="90" height="30" as="geometry" />
        </mxCell>
        <mxCell id="UwGJi3cT6jm0faRSvHgD-24" value="Private subnet" style="text;html=1;align=center;verticalAlign=middle;resizable=0;points=[];autosize=1;strokeColor=none;fillColor=none;" vertex="1" parent="1">
          <mxGeometry x="320" y="710" width="100" height="30" as="geometry" />
        </mxCell>
        <mxCell id="UwGJi3cT6jm0faRSvHgD-25" value="Presentation layer" style="text;html=1;align=center;verticalAlign=middle;resizable=0;points=[];autosize=1;strokeColor=none;fillColor=none;rotation=-90;" vertex="1" parent="1">
          <mxGeometry x="225" y="398.13" width="120" height="30" as="geometry" />
        </mxCell>
        <mxCell id="UwGJi3cT6jm0faRSvHgD-26" value="Application layer" style="text;html=1;align=center;verticalAlign=middle;resizable=0;points=[];autosize=1;strokeColor=none;fillColor=none;rotation=-90;" vertex="1" parent="1">
          <mxGeometry x="230" y="530" width="110" height="30" as="geometry" />
        </mxCell>
        <mxCell id="UwGJi3cT6jm0faRSvHgD-27" value="Data layer" style="text;html=1;align=center;verticalAlign=middle;resizable=0;points=[];autosize=1;strokeColor=none;fillColor=none;rotation=-90;" vertex="1" parent="1">
          <mxGeometry x="245" y="670" width="80" height="30" as="geometry" />
        </mxCell>
      </root>
    </mxGraphModel>
  </diagram>
</mxfile>
